<?xml version="1.0" encoding="utf-8"?>
<svg version="1.1" xmlns:xlink="http://www.w3.org/1999/xlink" width="197px" height="72px" xmlns="http://www.w3.org/2000/svg">
  <defs>
    <mask fill="white" id="clip394">
      <path d="M 188 0.480000000000218  L 0.525333333333214 0.480000000000218  L 0.525333333333214 71.5199999999998  L 188 71.5199999999998  L 188 43.6800000000002  L 195.949333333333 37.9200000000002  L 188 27.36  L 188 0.480000000000218  Z " fill-rule="evenodd" />
    </mask>
  </defs>
  <g transform="matrix(1 0 0 1 -1366 -241 )">
    <path d="M 188 0.480000000000218  L 0.525333333333214 0.480000000000218  L 0.525333333333214 71.5199999999998  L 188 71.5199999999998  L 188 43.6800000000002  L 195.949333333333 37.9200000000002  L 188 27.36  L 188 0.480000000000218  Z " fill-rule="nonzero" fill="#aaaaaa" stroke="none" transform="matrix(1 0 0 1 1366 241 )" />
    <path d="M 188 0.480000000000218  L 0.525333333333214 0.480000000000218  L 0.525333333333214 71.5199999999998  L 188 71.5199999999998  L 188 43.6800000000002  L 195.949333333333 37.9200000000002  L 188 27.36  L 188 0.480000000000218  Z " stroke-width="2" stroke="#ffffff" fill="none" transform="matrix(1 0 0 1 1366 241 )" mask="url(#clip394)" />
  </g>
</svg>