<?xml version="1.0" encoding="utf-8"?>
<svg version="1.1" xmlns:xlink="http://www.w3.org/1999/xlink" width="573px" height="148px" xmlns="http://www.w3.org/2000/svg">
  <g transform="matrix(1 0 0 1 -2991 -265 )">
    <path d="M 0 124.511194029851  C 0 124.511194029851  17.7425652107344 122.386336840692  63.5555555555554 111.529850746268  C 80.5457249796545 107.503622885867  114.375769880551 83.9568216414131  133.939393939394 85.2014925373133  C 164.697963105622 87.1584048008896  180.294343943041 116.443850316317  202.222222222222 126.888059701492  C 237.40403198539 143.645093055914  271.555555555555 146.634328358209  271.555555555555 146.634328358209  C 271.555555555555 146.634328358209  320.616417143531 142.5390088091  359.79797979798 113.723880597015  C 378.703170528726 99.8205174365225  365.497072170606 63.2512018669989  393.151515151515 49.9141791044776  C 417.103030302845 38.3629826840438  446.427725200102 28.7323241075081  474.31385357437 21.1109562208125  C 474.502578797284 21.0593770150503  474.691238131126 21.0078898386097  474.87982946443 20.956494719002  C 525.495044548091 7.16278008950386  571.212121212121 0  571.212121212121 0  " stroke-width="1" stroke="#ec80db" fill="none" stroke-opacity="0.996078431372549" transform="matrix(1 0 0 1 2991 265 )" />
  </g>
</svg>