<?xml version="1.0" encoding="utf-8"?>
<svg version="1.1" xmlns:xlink="http://www.w3.org/1999/xlink" width="223px" height="101px" xmlns="http://www.w3.org/2000/svg">
  <defs>
    <mask fill="white" id="clip395">
      <path d="M 213 0.67333333333364  L 0.594666666666531 0.67333333333364  L 0.594666666666531 100.326666666666  L 213 100.326666666666  L 213 61.2733333333336  L 221.810666666667 53.1933333333336  L 213 38.38  L 213 0.67333333333364  Z " fill-rule="evenodd" />
    </mask>
  </defs>
  <g transform="matrix(1 0 0 1 -3139 -210 )">
    <path d="M 213 0.67333333333364  L 0.594666666666531 0.67333333333364  L 0.594666666666531 100.326666666666  L 213 100.326666666666  L 213 61.2733333333336  L 221.810666666667 53.1933333333336  L 213 38.38  L 213 0.67333333333364  Z " fill-rule="nonzero" fill="#aaaaaa" stroke="none" fill-opacity="0.698039215686274" transform="matrix(1 0 0 1 3139 210 )" />
    <path d="M 213 0.67333333333364  L 0.594666666666531 0.67333333333364  L 0.594666666666531 100.326666666666  L 213 100.326666666666  L 213 61.2733333333336  L 221.810666666667 53.1933333333336  L 213 38.38  L 213 0.67333333333364  Z " stroke-width="2" stroke="#ffffff" fill="none" transform="matrix(1 0 0 1 3139 210 )" mask="url(#clip395)" />
  </g>
</svg>