<?xml version="1.0" encoding="utf-8"?>
<svg version="1.1" xmlns:xlink="http://www.w3.org/1999/xlink" width="241px" height="108px" xmlns="http://www.w3.org/2000/svg">
  <defs>
    <mask fill="white" id="clip396">
      <path d="M 230 0.720000000000327  L 0.642666666666521 0.720000000000327  L 0.642666666666521 107.28  L 230 107.28  L 230 65.5200000000003  L 239.714666666667 56.8800000000003  L 230 41.04  L 230 0.720000000000327  Z " fill-rule="evenodd" />
    </mask>
  </defs>
  <g transform="matrix(1 0 0 1 -3122 -564 )">
    <path d="M 230 0.720000000000327  L 0.642666666666521 0.720000000000327  L 0.642666666666521 107.28  L 230 107.28  L 230 65.5200000000003  L 239.714666666667 56.8800000000003  L 230 41.04  L 230 0.720000000000327  Z " fill-rule="nonzero" fill="#aaaaaa" stroke="none" fill-opacity="0.698039215686274" transform="matrix(1 0 0 1 3122 564 )" />
    <path d="M 230 0.720000000000327  L 0.642666666666521 0.720000000000327  L 0.642666666666521 107.28  L 230 107.28  L 230 65.5200000000003  L 239.714666666667 56.8800000000003  L 230 41.04  L 230 0.720000000000327  Z " stroke-width="2" stroke="#ffffff" fill="none" transform="matrix(1 0 0 1 3122 564 )" mask="url(#clip396)" />
  </g>
</svg>