<?xml version="1.0" encoding="utf-8"?>
<svg version="1.1" xmlns:xlink="http://www.w3.org/1999/xlink" width="70px" height="401px" xmlns="http://www.w3.org/2000/svg">
  <defs>
    <filter x="2990px" y="359px" width="70px" height="401px" filterUnits="userSpaceOnUse" id="filter293">
      <feOffset dx="5" dy="5" in="SourceAlpha" result="shadowOffsetInner" />
      <feGaussianBlur stdDeviation="2.5" in="shadowOffsetInner" result="shadowGaussian" />
      <feComposite in2="shadowGaussian" operator="atop" in="SourceAlpha" result="shadowComposite" />
      <feColorMatrix type="matrix" values="0 0 0 0 0  0 0 0 0 0  0 0 0 0 0  0 0 0 0.349019607843137 0  " in="shadowComposite" />
    </filter>
    <g id="widget294">
      <path d="M 2990.5 379  A 19.5 19.5 0 0 1 3010 359.5 L 3030 359.5  A 19.5 19.5 0 0 1 3049.5 379 L 3049.5 730  A 19.5 19.5 0 0 1 3030 749.5 L 3010 749.5  A 19.5 19.5 0 0 1 2990.5 730 L 2990.5 379  Z " fill-rule="nonzero" fill="#ec80db" stroke="none" fill-opacity="0.996078431372549" />
      <path d="M 2990.5 379  A 19.5 19.5 0 0 1 3010 359.5 L 3030 359.5  A 19.5 19.5 0 0 1 3049.5 379 L 3049.5 730  A 19.5 19.5 0 0 1 3030 749.5 L 3010 749.5  A 19.5 19.5 0 0 1 2990.5 730 L 2990.5 379  Z " stroke-width="1" stroke="#797979" fill="none" />
    </g>
  </defs>
  <g transform="matrix(1 0 0 1 -2990 -359 )">
    <use xlink:href="#widget294" filter="url(#filter293)" />
    <use xlink:href="#widget294" />
  </g>
</svg>