<?xml version="1.0" encoding="utf-8"?>
<svg version="1.1" xmlns:xlink="http://www.w3.org/1999/xlink" width="968px" height="161px" xmlns="http://www.w3.org/2000/svg">
  <g transform="matrix(1 0 0 1 -4910 -620 )">
    <path d="M 0 135.522388059701  C 0 135.522388059701  29.9948611167485 133.209618330005  107.444444444444 121.39303482587  C 136.167335761059 117.010745998222  193.35903754282 91.3815745756877  226.432506887052 92.73631840796  C 278.43169636912 94.8662909397437  304.798305232379 126.741605786468  341.868686868687 138.109452736318  C 401.345627499777 156.348400605077  459.080808080808 159.601990049751  459.080808080808 159.601990049751  C 459.080808080808 159.601990049751  542.021110800339 155.144499384054  608.259871441689 123.781094527363  C 640.22022010713 108.648182243834  617.894525854854 68.8448455695226  664.646005509642 54.3283582089552  C 705.137465564425 41.7556274112041  754.712605364509 31.2732779401449  801.85576294828 22.9779115328571  C 802.174814155549 22.921770900735  802.493753973424 22.8657304365819  802.812578832349 22.8097901703423  C 888.380608527979 7.79622322667086  965.668044077135 0  965.668044077135 0  " stroke-width="1" stroke="#ec80db" fill="none" stroke-opacity="0.996078431372549" transform="matrix(1 0 0 1 4910 620 )" />
  </g>
</svg>