<?xml version="1.0" encoding="utf-8"?>
<svg version="1.1" xmlns:xlink="http://www.w3.org/1999/xlink" width="246px" height="129px" xmlns="http://www.w3.org/2000/svg">
  <defs>
    <mask fill="white" id="clip397">
      <path d="M 235 0.860000000000391  L 0.655999999999851 0.860000000000391  L 0.655999999999851 128.14  L 235 128.14  L 235 78.2600000000004  L 244.688 67.9400000000004  L 235 49.02  L 235 0.860000000000391  Z " fill-rule="evenodd" />
    </mask>
  </defs>
  <g transform="matrix(1 0 0 1 -5289 -572 )">
    <path d="M 235 0.860000000000391  L 0.655999999999851 0.860000000000391  L 0.655999999999851 128.14  L 235 128.14  L 235 78.2600000000004  L 244.688 67.9400000000004  L 235 49.02  L 235 0.860000000000391  Z " fill-rule="nonzero" fill="#aaaaaa" stroke="none" fill-opacity="0.698039215686274" transform="matrix(1 0 0 1 5289 572 )" />
    <path d="M 235 0.860000000000391  L 0.655999999999851 0.860000000000391  L 0.655999999999851 128.14  L 235 128.14  L 235 78.2600000000004  L 244.688 67.9400000000004  L 235 49.02  L 235 0.860000000000391  Z " stroke-width="2" stroke="#ffffff" fill="none" transform="matrix(1 0 0 1 5289 572 )" mask="url(#clip397)" />
  </g>
</svg>