<?xml version="1.0" encoding="utf-8"?>
<svg version="1.1" xmlns:xlink="http://www.w3.org/1999/xlink" width="1218px" height="689px" xmlns="http://www.w3.org/2000/svg">
  <g transform="matrix(1 0 0 1 -2761 -423 )">
    <path d="M 2761 423  L 3979 423  L 3979 1112  L 2761 1112  L 2761 423  " fill-rule="nonzero" fill="#cccccc" stroke="none" />
    <path d="M 2809 471  L 3931 471  L 3931 1064  L 2809 1064  L 2809 471  " fill-rule="nonzero" fill="#ffffff" stroke="none" />
    <path d="M 3446.035 629.7  C 3417.097 629.7  3394.36 606.963  3394.36 578.025  C 3394.36 549.087  3417.097 526.35  3446.035 526.35  C 3474.973 526.35  3497.71 549.087  3497.71 578.025  C 3497.71 606.963  3474.973 629.7  3446.035 629.7  " fill-rule="nonzero" fill="#cccccc" stroke="none" />
    <path d="M 2826 1047  L 2826 739.55  L 3098 599.8  L 3478.8 857.270443349754  L 3696.4 683.65  L 3914 857.270443349754  L 3914 1047  L 2826 1047  " fill-rule="nonzero" fill="#169bd5" stroke="none" />
  </g>
</svg>