<?xml version="1.0" encoding="utf-8"?>
<svg version="1.1" xmlns:xlink="http://www.w3.org/1999/xlink" width="557px" height="174px" xmlns="http://www.w3.org/2000/svg">
  <g transform="matrix(1 0 0 1 -1242 -1031 )">
    <path d="M 0 146.533582089552  C 0 146.533582089552  17.2462696803642 144.032899819317  61.7777777777777 131.256218905472  C 78.2926977074963 126.517869110578  111.17644764613 98.8063275099624  130.192837465565 100.271144278607  C 160.091027074696 102.574177078598  175.251145511068 137.039361256618  196.565656565656 149.330845771144  C 230.763359762023 169.051708154239  263.959595959596 172.569651741293  263.959595959596 172.569651741293  C 263.959595959596 172.569651741293  311.6481257549 167.749989959008  349.733700642791 133.838308457711  C 368.110074849601 117.475847051146  355.273377844156 74.4384892720463  382.154269972452 58.7425373134328  C 405.435812671996 45.1482721383644  433.940236383316 33.8142317727817  461.046333194668 24.8448668449017  C 461.229779390367 24.7841647864197  461.413161540045 24.7235710345542  461.596477591299 24.6630856216826  C 510.795882462829 8.42966636383787  555.234159779614 0  555.234159779614 0  " stroke-width="1" stroke="#ec80db" fill="none" stroke-opacity="0.996078431372549" transform="matrix(1 0 0 1 1242 1031 )" />
  </g>
</svg>