<?xml version="1.0" encoding="utf-8"?>
<svg version="1.1" xmlns:xlink="http://www.w3.org/1999/xlink" width="233px" height="125px" xmlns="http://www.w3.org/2000/svg">
  <defs>
    <mask fill="white" id="clip398">
      <path d="M 223 0.833333333333712  L 0.621333333333192 0.833333333333712  L 0.621333333333192 124.166666666666  L 223 124.166666666666  L 223 75.8333333333337  L 231.757333333333 65.8333333333337  L 223 47.5  L 223 0.833333333333712  Z " fill-rule="evenodd" />
    </mask>
  </defs>
  <g transform="matrix(1 0 0 1 -1368 -1011 )">
    <path d="M 223 0.833333333333712  L 0.621333333333192 0.833333333333712  L 0.621333333333192 124.166666666666  L 223 124.166666666666  L 223 75.8333333333337  L 231.757333333333 65.8333333333337  L 223 47.5  L 223 0.833333333333712  Z " fill-rule="nonzero" fill="#aaaaaa" stroke="none" fill-opacity="0.698039215686274" transform="matrix(1 0 0 1 1368 1011 )" />
    <path d="M 223 0.833333333333712  L 0.621333333333192 0.833333333333712  L 0.621333333333192 124.166666666666  L 223 124.166666666666  L 223 75.8333333333337  L 231.757333333333 65.8333333333337  L 223 47.5  L 223 0.833333333333712  Z " stroke-width="2" stroke="#ffffff" fill="none" transform="matrix(1 0 0 1 1368 1011 )" mask="url(#clip398)" />
  </g>
</svg>