<?xml version="1.0" encoding="utf-8"?>
<svg version="1.1" xmlns:xlink="http://www.w3.org/1999/xlink" width="557px" height="148px" xmlns="http://www.w3.org/2000/svg">
  <g transform="matrix(1 0 0 1 -1243 -634 )">
    <path d="M 0 124.511194029851  C 0 124.511194029851  17.2462696803642 122.386336840692  61.7777777777777 111.529850746268  C 78.2926977074963 107.503622885867  111.17644764613 83.9568216414131  130.192837465565 85.2014925373133  C 160.091027074696 87.1584048008896  175.251145511068 116.443850316317  196.565656565656 126.888059701492  C 230.763359762023 143.645093055914  263.959595959596 146.634328358209  263.959595959596 146.634328358209  C 263.959595959596 146.634328358209  311.6481257549 142.5390088091  349.733700642791 113.723880597015  C 368.110074849601 99.8205174365225  355.273377844156 63.2512018669989  382.154269972452 49.9141791044776  C 405.435812671996 38.3629826840438  433.940236383316 28.7323241075081  461.046333194668 21.1109562208125  C 461.229779390367 21.0593770150503  461.413161540045 21.0078898386097  461.596477591299 20.956494719002  C 510.795882462829 7.16278008950386  555.234159779614 0  555.234159779614 0  " stroke-width="1" stroke="#ec80db" fill="none" stroke-opacity="0.996078431372549" transform="matrix(1 0 0 1 1243 634 )" />
  </g>
</svg>