<?xml version="1.0" encoding="utf-8"?>
<svg version="1.1" xmlns:xlink="http://www.w3.org/1999/xlink" width="573px" height="175px" xmlns="http://www.w3.org/2000/svg">
  <g transform="matrix(1 0 0 1 -2992 -1014 )">
    <path d="M 0 147.380597014925  C 0 147.380597014925  17.7425652107344 144.86545993388  63.5555555555554 132.014925373134  C 80.5457249796545 127.249186273067  114.375769880551 99.3774623510604  133.939393939394 100.850746268657  C 164.697963105622 103.167091396971  180.294343943041 137.831496292784  202.222222222222 150.194029850746  C 237.40403198539 170.028885658021  271.555555555555 173.567164179104  271.555555555555 173.567164179104  C 271.555555555555 173.567164179104  320.616417143531 168.719643080159  359.79797979798 134.611940298507  C 378.703170528726 118.15489819017  365.497072170606 74.8687695568558  393.151515151515 59.0820895522388  C 417.103030302845 45.4092448096845  446.427725200102 34.0096897599076  474.31385357437 24.9884787919821  C 474.502578797284 24.9274258545493  474.691238131126 24.8664818497829  474.87982946443 24.8056468102473  C 525.495044548091 8.47839275900456  571.212121212121 0  571.212121212121 0  " stroke-width="1" stroke="#ec80db" fill="none" stroke-opacity="0.996078431372549" transform="matrix(1 0 0 1 2992 1014 )" />
  </g>
</svg>