<?xml version="1.0" encoding="utf-8"?>
<svg version="1.1" xmlns:xlink="http://www.w3.org/1999/xlink" width="241px" height="128px" xmlns="http://www.w3.org/2000/svg">
  <defs>
    <mask fill="white" id="clip399">
      <path d="M 230 0.853333333333721  L 0.642666666666521 0.853333333333721  L 0.642666666666521 127.146666666666  L 230 127.146666666666  L 230 77.6533333333337  L 239.714666666667 67.4133333333337  L 230 48.64  L 230 0.853333333333721  Z " fill-rule="evenodd" />
    </mask>
  </defs>
  <g transform="matrix(1 0 0 1 -3122 -940 )">
    <path d="M 230 0.853333333333721  L 0.642666666666521 0.853333333333721  L 0.642666666666521 127.146666666666  L 230 127.146666666666  L 230 77.6533333333337  L 239.714666666667 67.4133333333337  L 230 48.64  L 230 0.853333333333721  Z " fill-rule="nonzero" fill="#aaaaaa" stroke="none" fill-opacity="0.698039215686274" transform="matrix(1 0 0 1 3122 940 )" />
    <path d="M 230 0.853333333333721  L 0.642666666666521 0.853333333333721  L 0.642666666666521 127.146666666666  L 230 127.146666666666  L 230 77.6533333333337  L 239.714666666667 67.4133333333337  L 230 48.64  L 230 0.853333333333721  Z " stroke-width="2" stroke="#ffffff" fill="none" transform="matrix(1 0 0 1 3122 940 )" mask="url(#clip399)" />
  </g>
</svg>