<?xml version="1.0" encoding="utf-8"?>
<svg version="1.1" xmlns:xlink="http://www.w3.org/1999/xlink" width="69px" height="56px" xmlns="http://www.w3.org/2000/svg">
  <g transform="matrix(1 0 0 1 -5700 -23 )">
    <path d="M 28.0752551020408 51.209375  C 28.0459183673469 51.3697916666667  28.0752551020408 51.5666666666667  28.1632653061225 51.8  C 28.1632653061225 51.9166666666667  28.1779336734694 52.2083333333333  28.2072704081633 52.675  C 28.2366071428571 53.1416666666667  28.2439413265306 53.528125  28.2292729591837 53.834375  C 28.2146045918367 54.140625  28.1705994897959 54.4833333333333  28.0972576530612 54.8625  C 28.0239158163265 55.2416666666667  27.8772321428571 55.5260416666667  27.6572066326531 55.715625  C 27.437181122449 55.9052083333333  27.1364795918367 56  26.7551020408163 56  L 12.6734693877551 56  C 9.18239795918367 56  6.19738520408163 54.7677083333333  3.71843112244898 52.303125  C 1.23947704081633 49.8385416666667  0 46.8708333333333  0 43.4  L 0 12.6  C 0 9.12916666666666  1.23947704081633 6.16145833333333  3.71843112244898 3.696875  C 6.19738520408163 1.23229166666666  9.18239795918367 0  12.6734693877551 0  L 26.7551020408163 0  C 27.1364795918367 0  27.4665178571429 0.138541666666659  27.7452168367347 0.415625000000001  C 28.0239158163265 0.692708333333331  28.1632653061225 1.02083333333333  28.1632653061225 1.4  C 28.1632653061225 1.51666666666666  28.1779336734694 1.80833333333333  28.2072704081633 2.275  C 28.2366071428571 2.74166666666666  28.2439413265306 3.128125  28.2292729591837 3.434375  C 28.2146045918367 3.740625  28.1705994897959 4.08333333333333  28.0972576530612 4.4625  C 28.0239158163265 4.84166666666666  27.8772321428571 5.12604166666666  27.6572066326531 5.315625  C 27.437181122449 5.50520833333333  27.1364795918367 5.6  26.7551020408163 6  L 12.6734693877551 6  C 10.7372448979592 5.6  9.0797193877551 6.28541666666666  7.70089285714286 7.65625  C 6.32206632653061 9.02708333333333  5.63265306122449 10.675  6 12.6  L 6 43.4  C 5.63265306122449 45.325  6.32206632653061 46.9729166666667  7.70089285714286 48.34375  C 9.0797193877551 49.7145833333333  10.7372448979592 50.4  12.6734693877551 50  L 25.3469387755102 50  L 25.8309948979592 50.4  L 26.4030612244898 50.4  C 26.4030612244898 50.4  26.5717474489796 50.4145833333333  26.9091198979592 50.44375  C 27.2464923469388 50.4729166666667  27.4151785714286 50.5166666666667  27.4151785714286 50.575  C 27.4151785714286 50.6333333333333  27.5325255102041 50.7135416666667  27.7672193877551 50.815625  C 28.0019132653061 50.9177083333333  28.1045918367347 51.0489583333333  28.0752551020408 51.209375  Z M 68.1639030612245 26.03125  C 68.7213010204082 26.5854166666667  69 27.2416666666667  69 28  C 69 28.7583333333333  68.7213010204082 29.4145833333333  68.1639030612245 29.96875  L 44.2251275510204 53.76875  C 43.6677295918367 54.3229166666667  43.0076530612245 54.6  42.2448979591837 54.6  C 41.4821428571429 54.6  40.8220663265306 54.3229166666667  40.2646683673469 53.76875  C 39.7072704081633 53.2145833333333  39.4285714285714 52.5583333333333  39 51.8  L 39 39  L 19.7142857142857 39  C 18.9515306122449 39.2  18.2914540816327 38.9229166666667  17.734056122449 38.36875  C 17.1766581632653 37.8145833333333  16.8979591836735 37.1583333333333  17 36.4  L 17 19.6  C 16.8979591836735 18.8416666666667  17.1766581632653 18.1854166666667  17.734056122449 17.63125  C 18.2914540816327 17.0770833333333  18.9515306122449 16.8  19.7142857142857 17  L 39 17  L 39 4.2  C 39.4285714285714 3.44166666666666  39.7072704081633 2.78541666666666  40.2646683673469 2.23125  C 40.8220663265306 1.67708333333333  41.4821428571429 1.4  42.2448979591837 1.4  C 43.0076530612245 1.4  43.6677295918367 1.67708333333333  44.2251275510204 2.23125  L 68.1639030612245 26.03125  Z " fill-rule="nonzero" fill="#555555" stroke="none" transform="matrix(1 0 0 1 5700 23 )" />
  </g>
</svg>