<?xml version="1.0" encoding="utf-8"?>
<svg version="1.1" xmlns:xlink="http://www.w3.org/1999/xlink" width="605px" height="121px" xmlns="http://www.w3.org/2000/svg">
  <g transform="matrix(1 0 0 1 -824 -814 )">
    <path d="M 0 101.641791044776  C 0 101.641791044776  18.7351562714748 99.9072137475034  67.111111111111 91.0447761194028  C 85.0517795239708 87.7580594986666  120.774414349393 68.5361809317658  141.432506887052 69.55223880597  C 173.911835167475 71.1497182048078  190.380740806987 95.0562043398508  213.535353535353 103.582089552239  C 250.685376432125 117.261300453808  286.747474747475 119.701492537313  286.747474747475 119.701492537313  C 286.747474747475 119.701492537313  338.552999920791 116.35837453804  379.926538108356 92.8358208955222  C 399.889361886977 81.4861366828755  385.944460823508 51.633634177142  415.146005509642 40.7462686567164  C 440.437465564543 31.3167205584031  471.402702833675 23.4549584551087  500.848894333775 17.2334336496428  C 501.048177611119 17.1913281755512  501.247391313286 17.1492978274365  501.446533210692 17.1073426277567  C 554.893368718613 5.84716742000315  603.168044077135 0  603.168044077135 0  " stroke-width="1" stroke="#ec80db" fill="none" stroke-opacity="0.996078431372549" transform="matrix(1 0 0 1 824 814 )" />
  </g>
</svg>