<?xml version="1.0" encoding="utf-8"?>
<svg version="1.1" xmlns:xlink="http://www.w3.org/1999/xlink" width="154px" height="90px" xmlns="http://www.w3.org/2000/svg">
  <defs>
    <mask fill="white" id="clip298">
      <path d="M 147 0.600000000000273  L 0.410666666666573 0.600000000000273  L 0.410666666666573 89.3999999999997  L 147 89.3999999999997  L 147 54.6000000000003  L 153.178666666667 47.4000000000003  L 147 34.2  L 147 0.600000000000273  Z " fill-rule="evenodd" />
    </mask>
  </defs>
  <g transform="matrix(1 0 0 1 -1061 -785 )">
    <path d="M 147 0.600000000000273  L 0.410666666666573 0.600000000000273  L 0.410666666666573 89.3999999999997  L 147 89.3999999999997  L 147 54.6000000000003  L 153.178666666667 47.4000000000003  L 147 34.2  L 147 0.600000000000273  Z " fill-rule="nonzero" fill="#aaaaaa" stroke="none" fill-opacity="0.698039215686274" transform="matrix(1 0 0 1 1061 785 )" />
    <path d="M 147 0.600000000000273  L 0.410666666666573 0.600000000000273  L 0.410666666666573 89.3999999999997  L 147 89.3999999999997  L 147 54.6000000000003  L 153.178666666667 47.4000000000003  L 147 34.2  L 147 0.600000000000273  Z " stroke-width="2" stroke="#ffffff" fill="none" transform="matrix(1 0 0 1 1061 785 )" mask="url(#clip298)" />
  </g>
</svg>