<?xml version="1.0" encoding="utf-8"?>
<svg version="1.1" xmlns:xlink="http://www.w3.org/1999/xlink" width="424px" height="99px" xmlns="http://www.w3.org/2000/svg">
  <g transform="matrix(1 0 0 1 -5462 -222 )">
    <path d="M 0 83.0074626865672  C 0 83.0074626865672  13.120813084162 81.5908912271278  46.9999999999999 74.3532338308457  C 59.5644085076815 71.669081923911  84.5820815725055 55.9712144276087  99.0495867768595 56.8009950248755  C 121.795871317619 58.1056032005931  133.329558545291 77.6292335442115  149.545454545454 84.5920398009949  C 175.56277190528 95.7633953706095  200.818181818182 97.7562189054725  200.818181818182 97.7562189054725  C 200.818181818182 97.7562189054725  237.099203586912 95.026005872733  266.074380165289 75.8159203980098  C 280.054967016873 66.5470116243484  270.288918755536 42.1674679113326  290.739669421488 33.2761194029851  C 308.452066115566 25.5753217893625  330.137985593782 19.1548827383388  350.760070038389 14.073970813875  C 350.899634320369 14.0395846767002  351.039149876689 14.0052598924064  351.178615145898 13.9709964793347  C 388.609097629095 4.7751867263359  422.417355371901 0  422.417355371901 0  " stroke-width="1" stroke="#ec80db" fill="none" stroke-opacity="0.996078431372549" transform="matrix(1 0 0 1 5462 222 )" />
  </g>
</svg>