<?xml version="1.0" encoding="utf-8"?>
<svg version="1.1" xmlns:xlink="http://www.w3.org/1999/xlink" width="156px" height="79px" xmlns="http://www.w3.org/2000/svg">
  <defs>
    <mask fill="white" id="clip299">
      <path d="M 149 0.526666666666906  L 0.415999999999905 0.526666666666906  L 0.415999999999905 78.4733333333331  L 149 78.4733333333331  L 149 47.9266666666669  L 155.168 41.6066666666669  L 149 30.02  L 149 0.526666666666906  Z " fill-rule="evenodd" />
    </mask>
  </defs>
  <g transform="matrix(1 0 0 1 -5580 -193 )">
    <path d="M 149 0.526666666666906  L 0.415999999999905 0.526666666666906  L 0.415999999999905 78.4733333333331  L 149 78.4733333333331  L 149 47.9266666666669  L 155.168 41.6066666666669  L 149 30.02  L 149 0.526666666666906  Z " fill-rule="nonzero" fill="#aaaaaa" stroke="none" fill-opacity="0.698039215686274" transform="matrix(1 0 0 1 5580 193 )" />
    <path d="M 149 0.526666666666906  L 0.415999999999905 0.526666666666906  L 0.415999999999905 78.4733333333331  L 149 78.4733333333331  L 149 47.9266666666669  L 155.168 41.6066666666669  L 149 30.02  L 149 0.526666666666906  Z " stroke-width="2" stroke="#ffffff" fill="none" transform="matrix(1 0 0 1 5580 193 )" mask="url(#clip299)" />
  </g>
</svg>