<?xml version="1.0" encoding="utf-8"?>
<svg version="1.1" xmlns:xlink="http://www.w3.org/1999/xlink" width="60px" height="60px" xmlns="http://www.w3.org/2000/svg">
  <g transform="matrix(1 0 0 1 -5816 -400 )">
    <path d="M 37.0703125 37.0703125  C 39.0234375 35.1171875  40 32.7604166666667  40 30  C 40 27.2395833333333  39.0234375 24.8828125  37.0703125 22.9296875  C 35.1171875 20.9765625  32.7604166666667 20  30 20  C 27.2395833333333 20  24.8828125 20.9765625  22.9296875 22.9296875  C 20.9765625 24.8828125  20 27.2395833333333  20 30  C 20 32.7604166666667  20.9765625 35.1171875  22.9296875 37.0703125  C 24.8828125 39.0234375  27.2395833333333 40  30 40  C 32.7604166666667 40  35.1171875 39.0234375  37.0703125 37.0703125  Z M 59.6875 24.82421875  C 59.8958333333333 25.09765625  60 25.4036458333333  60 25.7421875  L 60 34.4140625  C 60 34.7265625  59.8958333333333 35.0260416666667  59.6875 35.3125  C 59.4791666666667 35.5989583333333  59.21875 35.7682291666667  58.90625 35.8203125  L 51.6796875 36.9140625  C 51.1848958333333 38.3203125  50.6770833333333 39.5052083333333  50.15625 40.46875  C 51.0677083333333 41.7708333333333  52.4609375 43.5677083333333  54.3359375 45.859375  C 54.5963541666667 46.171875  54.7265625 46.4973958333333  54.7265625 46.8359375  C 54.7265625 47.1744791666667  54.609375 47.4739583333333  54.375 47.734375  C 53.671875 48.6979166666667  52.3828125 50.1041666666667  50.5078125 51.953125  C 48.6328125 53.8020833333333  47.4088541666667 54.7265625  46.8359375 54.7265625  C 46.5234375 54.7265625  46.1848958333333 54.609375  45.8203125 54.375  L 40.4296875 50.15625  C 39.2838541666667 50.7552083333333  38.0989583333333 51.25  36.875 51.640625  C 36.4583333333333 55.1822916666667  36.0807291666667 57.6041666666667  35.7421875 58.90625  C 35.5598958333333 59.6354166666667  35.0911458333333 60  34.3359375 60  L 25.6640625 60  C 25.2994791666667 60  24.98046875 59.8893229166667  24.70703125 59.66796875  C 24.43359375 59.4466145833333  24.2838541666667 59.1666666666667  24.2578125 58.828125  L 23.1640625 51.640625  C 21.8880208333333 51.2239583333333  20.7161458333333 50.7421875  19.6484375 50.1953125  L 14.140625 54.375  C 13.8802083333333 54.609375  13.5546875 54.7265625  13.1640625 54.7265625  C 12.7994791666667 54.7265625  12.4739583333333 54.5833333333333  12.1875 54.296875  C 8.90625 51.328125  6.7578125 49.140625  5.7421875 47.734375  C 5.55989583333333 47.4739583333333  5.46875 47.1744791666667  5.46875 46.8359375  C 5.46875 46.5234375  5.57291666666667 46.2239583333333  5.78125 45.9375  C 6.171875 45.390625  6.8359375 44.5247395833333  7.7734375 43.33984375  C 8.7109375 42.1549479166667  9.4140625 41.2369791666667  9.8828125 40.5859375  C 9.1796875 39.2838541666667  8.64583333333333 37.9947916666667  8.28125 36.71875  L 1.1328125 35.6640625  C 0.794270833333333 35.6119791666667  0.520833333333333 35.44921875  0.3125 35.17578125  C 0.104166666666667 34.90234375  0 34.5963541666667  0 34.2578125  L 0 25.5859375  C 0 25.2734375  0.104166666666667 24.9739583333333  0.3125 24.6875  C 0.520833333333333 24.4010416666667  0.768229166666667 24.2317708333333  1.0546875 24.1796875  L 8.3203125 23.0859375  C 8.68489583333333 21.8880208333333  9.19270833333333 20.6901041666667  9.84375 19.4921875  C 8.80208333333333 18.0078125  7.40885416666667 16.2109375  5.6640625 14.1015625  C 5.40364583333333 13.7890625  5.2734375 13.4765625  5.2734375 13.1640625  C 5.2734375 12.9036458333333  5.390625 12.6041666666667  5.625 12.265625  C 6.30208333333333 11.328125  7.58463541666667 9.92838541666666  9.47265625 8.06640625  C 11.3606770833333 6.20442708333333  12.5911458333333 5.2734375  13.1640625 5.2734375  C 13.5026041666667 5.2734375  13.8411458333333 5.40364583333333  14.1796875 5.6640625  L 19.5703125 9.84375  C 20.7161458333333 9.24479166666666  21.9010416666667 8.75  23.125 8.359375  C 23.5416666666667 4.81770833333333  23.9192708333333 2.39583333333333  24.2578125 1.09375  C 24.4401041666667 0.36458333333333  24.9088541666667 0  25.6640625 0  L 34.3359375 0  C 34.7005208333333 0  35.01953125 0.110677083333328  35.29296875 0.332031249999998  C 35.56640625 0.553385416666661  35.7161458333333 0.83333333333333  35.7421875 1.171875  L 36.8359375 8.359375  C 38.1119791666667 8.77604166666666  39.2838541666667 9.2578125  40.3515625 9.8046875  L 45.8984375 5.625  C 46.1328125 5.390625  46.4453125 5.2734375  46.8359375 5.2734375  C 47.1744791666667 5.2734375  47.5 5.40364583333333  47.8125 5.6640625  C 51.171875 8.76302083333333  53.3203125 10.9765625  54.2578125 12.3046875  C 54.4401041666667 12.5130208333333  54.53125 12.7994791666667  54.53125 13.1640625  C 54.53125 13.4765625  54.4270833333333 13.7760416666667  54.21875 14.0625  C 53.828125 14.609375  53.1640625 15.4752604166667  52.2265625 16.66015625  C 51.2890625 17.8450520833333  50.5859375 18.7630208333333  50.1171875 19.4140625  C 50.7942708333333 20.7161458333333  51.328125 21.9921875  51.71875 23.2421875  L 58.8671875 24.3359375  C 59.2057291666667 24.3880208333333  59.4791666666667 24.55078125  59.6875 24.82421875  Z " fill-rule="nonzero" fill="#333333" stroke="none" transform="matrix(1 0 0 1 5816 400 )" />
  </g>
</svg>