<?xml version="1.0" encoding="utf-8"?>
<svg version="1.1" xmlns:xlink="http://www.w3.org/1999/xlink" width="72px" height="72px" xmlns="http://www.w3.org/2000/svg">
  <defs>
    <mask fill="white" id="clip324">
      <path d="M 70.3030303030303 53.8181818181818  C 71.4343434343434 54.9494949494949  72 56.3232323232323  72 57.9393939393939  C 72 59.5555555555556  71.4343434343434 60.9292929292929  70.3030303030303 62.0606060606061  L 62.0606060606061 70.3030303030303  C 60.9292929292929 71.4343434343434  59.5555555555556 72  57.9393939393939 72  C 56.3232323232323 72  54.949494949495 71.4343434343434  53.8181818181818 70.3030303030303  L 36 52.4848484848485  L 18.1818181818182 70.3030303030303  C 17.0505050505051 71.4343434343434  15.6767676767677 72  14.0606060606061 72  C 12.4444444444444 72  11.0707070707071 71.4343434343434  9.93939393939394 70.3030303030303  L 1.6969696969697 62.0606060606061  C 0.565656565656566 60.9292929292929  0 59.5555555555556  0 57.9393939393939  C 0 56.3232323232323  0.565656565656566 54.9494949494949  1.6969696969697 53.8181818181818  L 19.5151515151515 36  L 1.6969696969697 18.1818181818182  C 0.565656565656566 17.050505050505  0 15.6767676767677  0 14.0606060606061  C 0 12.4444444444444  0.565656565656566 11.0707070707071  1.6969696969697 9.93939393939394  L 9.93939393939394 1.6969696969697  C 11.0707070707071 0.565656565656563  12.4444444444444 0  14.0606060606061 0  C 15.6767676767677 0  17.0505050505051 0.565656565656563  18.1818181818182 1.6969696969697  L 36 19.5151515151515  L 53.8181818181818 1.6969696969697  C 54.949494949495 0.565656565656563  56.3232323232323 0  57.9393939393939 0  C 59.5555555555556 0  60.9292929292929 0.565656565656563  62.0606060606061 1.6969696969697  L 70.3030303030303 9.93939393939394  C 71.4343434343434 11.0707070707071  72 12.4444444444444  72 14.0606060606061  C 72 15.6767676767677  71.4343434343434 17.050505050505  70.3030303030303 18.1818181818182  L 52.4848484848485 36  L 70.3030303030303 53.8181818181818  Z " fill-rule="evenodd" />
    </mask>
  </defs>
  <g transform="matrix(1 0 0 1 -3858 -166 )">
    <path d="M 70.3030303030303 53.8181818181818  C 71.4343434343434 54.9494949494949  72 56.3232323232323  72 57.9393939393939  C 72 59.5555555555556  71.4343434343434 60.9292929292929  70.3030303030303 62.0606060606061  L 62.0606060606061 70.3030303030303  C 60.9292929292929 71.4343434343434  59.5555555555556 72  57.9393939393939 72  C 56.3232323232323 72  54.949494949495 71.4343434343434  53.8181818181818 70.3030303030303  L 36 52.4848484848485  L 18.1818181818182 70.3030303030303  C 17.0505050505051 71.4343434343434  15.6767676767677 72  14.0606060606061 72  C 12.4444444444444 72  11.0707070707071 71.4343434343434  9.93939393939394 70.3030303030303  L 1.6969696969697 62.0606060606061  C 0.565656565656566 60.9292929292929  0 59.5555555555556  0 57.9393939393939  C 0 56.3232323232323  0.565656565656566 54.9494949494949  1.6969696969697 53.8181818181818  L 19.5151515151515 36  L 1.6969696969697 18.1818181818182  C 0.565656565656566 17.050505050505  0 15.6767676767677  0 14.0606060606061  C 0 12.4444444444444  0.565656565656566 11.0707070707071  1.6969696969697 9.93939393939394  L 9.93939393939394 1.6969696969697  C 11.0707070707071 0.565656565656563  12.4444444444444 0  14.0606060606061 0  C 15.6767676767677 0  17.0505050505051 0.565656565656563  18.1818181818182 1.6969696969697  L 36 19.5151515151515  L 53.8181818181818 1.6969696969697  C 54.949494949495 0.565656565656563  56.3232323232323 0  57.9393939393939 0  C 59.5555555555556 0  60.9292929292929 0.565656565656563  62.0606060606061 1.6969696969697  L 70.3030303030303 9.93939393939394  C 71.4343434343434 11.0707070707071  72 12.4444444444444  72 14.0606060606061  C 72 15.6767676767677  71.4343434343434 17.050505050505  70.3030303030303 18.1818181818182  L 52.4848484848485 36  L 70.3030303030303 53.8181818181818  Z " fill-rule="nonzero" fill="#000000" stroke="none" transform="matrix(1 0 0 1 3858 166 )" />
    <path d="M 70.3030303030303 53.8181818181818  C 71.4343434343434 54.9494949494949  72 56.3232323232323  72 57.9393939393939  C 72 59.5555555555556  71.4343434343434 60.9292929292929  70.3030303030303 62.0606060606061  L 62.0606060606061 70.3030303030303  C 60.9292929292929 71.4343434343434  59.5555555555556 72  57.9393939393939 72  C 56.3232323232323 72  54.949494949495 71.4343434343434  53.8181818181818 70.3030303030303  L 36 52.4848484848485  L 18.1818181818182 70.3030303030303  C 17.0505050505051 71.4343434343434  15.6767676767677 72  14.0606060606061 72  C 12.4444444444444 72  11.0707070707071 71.4343434343434  9.93939393939394 70.3030303030303  L 1.6969696969697 62.0606060606061  C 0.565656565656566 60.9292929292929  0 59.5555555555556  0 57.9393939393939  C 0 56.3232323232323  0.565656565656566 54.9494949494949  1.6969696969697 53.8181818181818  L 19.5151515151515 36  L 1.6969696969697 18.1818181818182  C 0.565656565656566 17.050505050505  0 15.6767676767677  0 14.0606060606061  C 0 12.4444444444444  0.565656565656566 11.0707070707071  1.6969696969697 9.93939393939394  L 9.93939393939394 1.6969696969697  C 11.0707070707071 0.565656565656563  12.4444444444444 0  14.0606060606061 0  C 15.6767676767677 0  17.0505050505051 0.565656565656563  18.1818181818182 1.6969696969697  L 36 19.5151515151515  L 53.8181818181818 1.6969696969697  C 54.949494949495 0.565656565656563  56.3232323232323 0  57.9393939393939 0  C 59.5555555555556 0  60.9292929292929 0.565656565656563  62.0606060606061 1.6969696969697  L 70.3030303030303 9.93939393939394  C 71.4343434343434 11.0707070707071  72 12.4444444444444  72 14.0606060606061  C 72 15.6767676767677  71.4343434343434 17.050505050505  70.3030303030303 18.1818181818182  L 52.4848484848485 36  L 70.3030303030303 53.8181818181818  Z " stroke-width="14" stroke="#cccccc" fill="none" transform="matrix(1 0 0 1 3858 166 )" mask="url(#clip324)" />
  </g>
</svg>