<?xml version="1.0" encoding="utf-8"?>
<svg version="1.1" xmlns:xlink="http://www.w3.org/1999/xlink" width="327px" height="68px" xmlns="http://www.w3.org/2000/svg">
  <defs>
    <filter x="2713px" y="980px" width="327px" height="68px" filterUnits="userSpaceOnUse" id="filter267">
      <feOffset dx="5" dy="5" in="SourceAlpha" result="shadowOffsetInner" />
      <feGaussianBlur stdDeviation="2.5" in="shadowOffsetInner" result="shadowGaussian" />
      <feComposite in2="shadowGaussian" operator="atop" in="SourceAlpha" result="shadowComposite" />
      <feColorMatrix type="matrix" values="0 0 0 0 0  0 0 0 0 0  0 0 0 0 0  0 0 0 0.349019607843137 0  " in="shadowComposite" />
    </filter>
    <g id="widget268">
      <path d="M 2713.5 990  A 9.5 9.5 0 0 1 2723 980.5 L 3020 980.5  A 9.5 9.5 0 0 1 3029.5 990 L 3029.5 1028  A 9.5 9.5 0 0 1 3020 1037.5 L 2723 1037.5  A 9.5 9.5 0 0 1 2713.5 1028 L 2713.5 990  Z " fill-rule="nonzero" fill="#ef5aa1" stroke="none" fill-opacity="0.8" />
      <path d="M 2713.5 990  A 9.5 9.5 0 0 1 2723 980.5 L 3020 980.5  A 9.5 9.5 0 0 1 3029.5 990 L 3029.5 1028  A 9.5 9.5 0 0 1 3020 1037.5 L 2723 1037.5  A 9.5 9.5 0 0 1 2713.5 1028 L 2713.5 990  Z " stroke-width="1" stroke="#797979" fill="none" />
    </g>
  </defs>
  <g transform="matrix(1 0 0 1 -2713 -980 )">
    <use xlink:href="#widget268" filter="url(#filter267)" />
    <use xlink:href="#widget268" />
  </g>
</svg>