<?xml version="1.0" encoding="utf-8"?>
<svg version="1.1" xmlns:xlink="http://www.w3.org/1999/xlink" width="877px" height="161px" xmlns="http://www.w3.org/2000/svg">
  <defs>
    <filter x="2463px" y="709px" width="877px" height="161px" filterUnits="userSpaceOnUse" id="filter289">
      <feOffset dx="5" dy="5" in="SourceAlpha" result="shadowOffsetInner" />
      <feGaussianBlur stdDeviation="2.5" in="shadowOffsetInner" result="shadowGaussian" />
      <feComposite in2="shadowGaussian" operator="atop" in="SourceAlpha" result="shadowComposite" />
      <feColorMatrix type="matrix" values="0 0 0 0 0  0 0 0 0 0  0 0 0 0 0  0 0 0 0.349019607843137 0  " in="shadowComposite" />
    </filter>
    <g id="widget290">
      <path d="M 2463.5 729  A 19.5 19.5 0 0 1 2483 709.5 L 3310 709.5  A 19.5 19.5 0 0 1 3329.5 729 L 3329.5 840  A 19.5 19.5 0 0 1 3310 859.5 L 2483 859.5  A 19.5 19.5 0 0 1 2463.5 840 L 2463.5 729  Z " fill-rule="nonzero" fill="#ec80db" stroke="none" fill-opacity="0.996078431372549" />
      <path d="M 2463.5 729  A 19.5 19.5 0 0 1 2483 709.5 L 3310 709.5  A 19.5 19.5 0 0 1 3329.5 729 L 3329.5 840  A 19.5 19.5 0 0 1 3310 859.5 L 2483 859.5  A 19.5 19.5 0 0 1 2463.5 840 L 2463.5 729  Z " stroke-width="1" stroke="#797979" fill="none" />
    </g>
  </defs>
  <g transform="matrix(1 0 0 1 -2463 -709 )">
    <use xlink:href="#widget290" filter="url(#filter289)" />
    <use xlink:href="#widget290" />
  </g>
</svg>