<?xml version="1.0" encoding="utf-8"?>
<svg version="1.1" xmlns:xlink="http://www.w3.org/1999/xlink" width="890px" height="904px" xmlns="http://www.w3.org/2000/svg">
  <g transform="matrix(1 0 0 1 -2505 -186 )">
    <path d="M 0 0  L 0.0829450139794527 904  L 42.1084187635913 904  L 89.1105933519727 779.599119481472  L 111.782230506369 651.356487709429  L 95.7461944703324 597.737801149566  L 112.528735632184 573.41592271004  L 137.771668219944 572.669683257919  L 167.526546250684 558.596423184658  L 197.729064039409 542.039646627882  L 255.211275314724 515.743589743589  L 273.670068553167 512.747560010552  L 294.313334364208 493.48736886959  L 316.332817895985 478.354361544549  L 343.39843307046 447.62977091492  L 355.325653316839 446.886877828054  L 360.432950191571 404.618401206636  L 343.39843307046 383.484162895928  L 322.92337164751 337.125188536953  L 316.332817895985 317.354449472097  L 302 286.675716440422  L 302 255.315233785822  L 267 232.135746606335  L 267 221.227752639518  L 295 193.276018099548  L 295 151.00754147813  L 316.332817895985 120.328808446455  L 343.39843307046 77.3785822021115  L 364.524904214559 63.7435897435899  L 386.348659003831 48.7450980392155  L 416.35632183908 48.0633484162896  L 423.858237547893 37.1553544494723  L 444.318007662835 36.8144796380091  L 460.003831417624 48  L 477.053639846743 48  L 491.375478927203 48  L 509.107279693487 63.7435897435899  L 535.704980842912 86.9230769230769  L 545.252873563218 111.466063348416  L 552.754789272031 134.645550527903  L 563 162.597285067873  L 563 188.503770739065  L 577.306513409962 204.865761689291  L 584.808429118774 217.137254901961  L 585.149425287356 230.772247360482  L 585.149425287356 232.135746606335  L 568 247.815987933635  L 568 268.268476621418  L 568.44061302682 286.675716440422  L 545.252873563218 333.034690799397  L 535.704980842912 337.125188536953  L 521.383141762452 355.532428355958  L 517.291187739463 376.666666666667  L 509.107279693487 404.618401206636  L 509 412.117647058824  L 509 433.154492566257  L 517.291187739463 446.886877828054  L 540.284072249589 438.413703943116  L 577.306513409962 482.824822236587  L 594.064039408867 489.837104072398  L 605.170771756979 493  L 625.630541871921 493  L 643.752052545156 493.48736886959  L 654.858784893268 489.837104072398  L 700.454844006568 508.536522301228  L 719.745484400657 515.743589743589  L 741.95894909688 526.651583710407  L 763.00328407225 533.663865546218  L 773.525451559934 542.039646627882  L 785 552.947640594699  L 785 584.50290885585  L 786 606.790152289203  L 786 618.885710115311  L 800.648003955012 638.678441103488  L 810.547892720307 666.168345253734  L 820.997775305895 696.407239819005  L 829.797676430602 719.498759305211  L 830.666666666667 762.383009779594  L 842.447534297367 773.378971439692  L 849.597453961191 804.167664087967  L 859 832.757164404223  L 859 856.398481973435  L 860.333333333333 879.490001459641  L 889 903.972361501773  L 889 0.362866734783378  L 0 0  Z " fill-rule="nonzero" fill="#f2f2f2" stroke="none" transform="matrix(1 0 0 1 2505 186 )" />
  </g>
</svg>