<?xml version="1.0" encoding="utf-8"?>
<svg version="1.1" xmlns:xlink="http://www.w3.org/1999/xlink" width="679px" height="384px" xmlns="http://www.w3.org/2000/svg">
  <g transform="matrix(1 0 0 1 -3591 -373 )">
    <path d="M 3591 373  L 4270 373  L 4270 757  L 3591 757  L 3591 373  " fill-rule="nonzero" fill="#cccccc" stroke="none" />
    <path d="M 3618 400  L 4243 400  L 4243 730  L 3618 730  L 3618 400  " fill-rule="nonzero" fill="#ffffff" stroke="none" />
    <path d="M 3972.88 488.2  C 3956.752 488.2  3944.08 475.528  3944.08 459.4  C 3944.08 443.272  3956.752 430.6  3972.88 430.6  C 3989.008 430.6  4001.68 443.272  4001.68 459.4  C 4001.68 475.528  3989.008 488.2  3972.88 488.2  " fill-rule="nonzero" fill="#cccccc" stroke="none" />
    <path d="M 3628 721  L 3628 549.95  L 3779.5 472.2  L 3991.6 615.470692194404  L 4112.8 518.85  L 4234 615.470692194404  L 4234 721  L 3628 721  " fill-rule="nonzero" fill="#169bd5" stroke="none" />
  </g>
</svg>