<?xml version="1.0" encoding="utf-8"?>
<svg version="1.1" xmlns:xlink="http://www.w3.org/1999/xlink" width="81px" height="103px" xmlns="http://www.w3.org/2000/svg">
  <defs>
    <filter x="117px" y="411px" width="81px" height="103px" filterUnits="userSpaceOnUse" id="filter385">
      <feOffset dx="1" dy="1" in="SourceAlpha" result="shadowOffsetInner" />
      <feGaussianBlur stdDeviation="2.5" in="shadowOffsetInner" result="shadowGaussian" />
      <feComposite in2="shadowGaussian" operator="atop" in="SourceAlpha" result="shadowComposite" />
      <feColorMatrix type="matrix" values="0 0 0 0 0  0 0 0 0 0  0 0 0 0 0  0 0 0 0.996078431372549 0  " in="shadowComposite" />
    </filter>
    <g id="widget386">
      <path d="M 156.5 507.048384876943  C 142.5 484.164390693503  121.5 470.43399418344  121.5 447.55  C 121.5 435.645714285714  128.5 415.5  156.5 415.5  C 184.5 415.5  191.5 435.645714285714  191.5 447.55  C 191.5 470.43399418344  170.5 484.164390693503  156.5 507.048384876943  Z " fill-rule="nonzero" fill="#027db4" stroke="none" />
      <path d="M 156.5 508  C 142.3 484.75  121 470.8  121 447.55  C 121 435.46  128.1 415  156.5 415  C 184.9 415  192 435.46  192 447.55  C 192 470.8  170.7 484.75  156.5 508  Z M 156.5 506.096769753886  C 170.3 483.578781387007  191 470.067988366879  191 447.55  C 191 435.831428571429  184.1 416  156.5 416  C 128.9 416  122 435.831428571429  122 447.55  C 122 470.067988366879  142.7 483.578781387007  156.5 506.096769753886  Z " fill-rule="nonzero" fill="#ffffff" stroke="none" />
    </g>
  </defs>
  <g transform="matrix(1 0 0 1 -117 -411 )">
    <use xlink:href="#widget386" filter="url(#filter385)" />
    <use xlink:href="#widget386" />
  </g>
</svg>