<?xml version="1.0" encoding="utf-8"?>
<svg version="1.1" xmlns:xlink="http://www.w3.org/1999/xlink" width="99px" height="127px" xmlns="http://www.w3.org/2000/svg">
  <defs>
    <filter x="178px" y="155px" width="99px" height="127px" filterUnits="userSpaceOnUse" id="filter391">
      <feOffset dx="1" dy="1" in="SourceAlpha" result="shadowOffsetInner" />
      <feGaussianBlur stdDeviation="2.5" in="shadowOffsetInner" result="shadowGaussian" />
      <feComposite in2="shadowGaussian" operator="atop" in="SourceAlpha" result="shadowComposite" />
      <feColorMatrix type="matrix" values="0 0 0 0 0  0 0 0 0 0  0 0 0 0 0  0 0 0 0.996078431372549 0  " in="shadowComposite" />
    </filter>
    <g id="widget392">
      <path d="M 226.5 275.046067850487  C 208.9 246.162964831069  182.5 228.833103019418  182.5 199.95  C 182.5 184.925714285714  191.3 159.5  226.5 159.5  C 261.7 159.5  270.5 184.925714285714  270.5 199.95  C 270.5 228.833103019418  244.1 246.162964831069  226.5 275.046067850487  Z " fill-rule="nonzero" fill="#027db4" stroke="none" />
      <path d="M 226.5 276  C 208.7 246.75  182 229.2  182 199.95  C 182 184.74  190.9 159  226.5 159  C 262.1 159  271 184.74  271 199.95  C 271 229.2  244.3 246.75  226.5 276  Z M 226.5 274.092135700973  C 243.9 245.575929662137  270 228.466206038836  270 199.95  C 270 185.111428571429  261.3 160  226.5 160  C 191.7 160  183 185.111428571429  183 199.95  C 183 228.466206038836  209.1 245.575929662137  226.5 274.092135700973  Z " fill-rule="nonzero" fill="#ffffff" stroke="none" />
    </g>
  </defs>
  <g transform="matrix(1 0 0 1 -178 -155 )">
    <use xlink:href="#widget392" filter="url(#filter391)" />
    <use xlink:href="#widget392" />
  </g>
</svg>