<?xml version="1.0" encoding="utf-8"?>
<svg version="1.1" xmlns:xlink="http://www.w3.org/1999/xlink" width="312px" height="53px" xmlns="http://www.w3.org/2000/svg">
  <g transform="matrix(1 0 0 1 -58 -713 )">
    <path d="M 0 42.3507462686567  C 0 42.3507462686567  9.58470743027435 41.6280057281264  34.3333333333333 37.9353233830845  C 43.5115891935546 36.5658581244444  61.7869106522558 28.5567420549024  72.3553719008265 28.9800995024875  C 88.9714520972678 29.6457159186699  97.396769717482 39.6067518082712  109.242424242424 43.1592039800994  C 128.247982313786 48.8588751890865  146.69696969697 49.8756218905472  146.69696969697 49.8756218905472  C 146.69696969697 49.8756218905472  173.200127442921 48.4826560575168  194.366391184573 38.6815920398009  C 204.579160303106 33.9525569511981  197.445096679576 21.5140142404758  212.384297520661 16.9776119402985  C 225.323140495768 13.0486335660013  241.164627774181 9.77289935629528  256.228987333008 7.18059735401784  C 256.330938546086 7.16305340647968  256.432854165241 7.14554076143185  256.534733049841 7.12805942823198  C 283.877567771608 2.43631975833464  308.574380165289 0  308.574380165289 0  " stroke-width="2" stroke="#ec80db" fill="none" stroke-opacity="0.996078431372549" transform="matrix(1 0 0 1 59 714 )" />
  </g>
</svg>