<?xml version="1.0" encoding="utf-8"?>
<svg version="1.1" xmlns:xlink="http://www.w3.org/1999/xlink" width="181px" height="72px" xmlns="http://www.w3.org/2000/svg">
  <defs>
    <mask fill="white" id="clip393">
      <path d="M 8 0.480000000000218  L 180.517333333333 0.480000000000218  L 180.517333333333 71.5199999999998  L 8 71.5199999999998  L 8 43.6800000000002  L 0.965333333333448 37.9200000000002  L 8 27.36  L 8 0.480000000000218  Z " fill-rule="evenodd" />
    </mask>
  </defs>
  <g transform="matrix(1 0 0 1 -378 -694 )">
    <path d="M 8 0.480000000000218  L 180.517333333333 0.480000000000218  L 180.517333333333 71.5199999999998  L 8 71.5199999999998  L 8 43.6800000000002  L 0.965333333333448 37.9200000000002  L 8 27.36  L 8 0.480000000000218  Z " fill-rule="nonzero" fill="#aaaaaa" stroke="none" fill-opacity="0.698039215686274" transform="matrix(1 0 0 1 378 694 )" />
    <path d="M 8 0.480000000000218  L 180.517333333333 0.480000000000218  L 180.517333333333 71.5199999999998  L 8 71.5199999999998  L 8 43.6800000000002  L 0.965333333333448 37.9200000000002  L 8 27.36  L 8 0.480000000000218  Z " stroke-width="2" stroke="#ffffff" fill="none" transform="matrix(1 0 0 1 378 694 )" mask="url(#clip393)" />
  </g>
</svg>