<?xml version="1.0" encoding="utf-8"?>
<svg version="1.1" xmlns:xlink="http://www.w3.org/1999/xlink" width="479px" height="186px" xmlns="http://www.w3.org/2000/svg">
  <g transform="matrix(1 0 0 1 -51 -1012 )">
    <path d="M 0 156.69776119403  C 0 156.69776119403  14.8268289698095 154.023621194068  53.111111111111 140.360696517413  C 67.3091897557252 135.293675060444  95.5797517533278 105.659945603139  111.928374655647 107.226368159204  C 137.632213923929 109.689148899079  150.665553155199 146.544981690603  168.989898989899 159.689054726368  C 198.390082673106 180.77783819962  226.929292929293 184.539800995025  226.929292929293 184.539800995025  C 226.929292929293 184.539800995025  267.927705235328 179.385827412812  300.670339761249 143.121890547263  C 316.468733413866 125.624460719433  305.43286800271 79.6018526897605  328.542699724518 62.8171641791045  C 348.558126721608 48.2799441942047  373.063728401484 36.1597276182926  396.367171343617 26.568210209866  C 396.524882281647 26.5032976039748  396.682538158528 26.4385008172979  396.840137209786 26.3738198844583  C 439.137467297181 9.01438310583818  477.341597796143 0  477.341597796143 0  " stroke-width="1" stroke="#ec80db" fill="none" stroke-opacity="0.996078431372549" transform="matrix(1 0 0 1 51 1012 )" />
  </g>
</svg>