<?xml version="1.0" encoding="utf-8"?>
<svg version="1.1" xmlns:xlink="http://www.w3.org/1999/xlink" width="92px" height="10px" preserveAspectRatio="xMinYMid meet" viewBox="1330 379  92 8" xmlns="http://www.w3.org/2000/svg">
  <g transform="matrix(0.933580426497202 0.358367949545301 -0.3583679495453 0.933580426497202 228.6482578157 -467.675601922763 )">
    <path d="M 556 22.4888059701493  C 556 22.4888059701493  538.753730319636 24.6136631593083  494.222222222222 35.4701492537315  C 477.707302292504 39.4963771141334  444.82355235387 63.0431783585869  425.807162534435 61.7985074626867  C 395.908972925304 59.8415951991104  380.748854488932 30.5561496836827  359.434343434344 20.1119402985076  C 325.236640237977 3.35490694408573  292.040404040404 0.365671641791214  292.040404040404 0.365671641791214  C 292.040404040404 0.365671641791214  244.3518742451 4.46099119090048  206.266299357209 33.2761194029852  C 187.889925150399 47.1794825634775  200.726622155844 83.7487981330011  173.845730027548 97.0858208955224  C 150.564187328004 108.637017315956  122.059763616684 118.267675892492  94.9536668053325 125.889043779188  C 94.7702206096326 125.94062298495  94.5868384599549 125.99211016139  94.4035224087011 126.043505280998  C 45.2041175371705 139.837219910496  0.765840220385652 147  0.765840220385652 147  " stroke-width="1" stroke="#00ffff" fill="none" transform="matrix(1 0 0 1 1242 270 )" />
  </g>
</svg>