<?xml version="1.0" encoding="utf-8"?>
<svg version="1.1" xmlns:xlink="http://www.w3.org/1999/xlink" width="34px" height="28px" xmlns="http://www.w3.org/2000/svg">
  <g transform="matrix(1 0 0 1 -5497 -37 )">
    <path d="M 3.71326161916181 21.6879833563066  C 3.90948748679762 21.8830549541328  4.1524298340928 22.003380184504  4.40584938987331 22.0489590851174  C 4.50581854954248 24.9374285760326  6.6661486964922 26.9288410633938  9.67889519849905 27  L 28.6180335141714 27  L 28.6862039243522 27.1597351325112  C 31.5021662525985 27.0179192229039  34 24.6035898349549  34 21.8381795976121  C 34 19.1609719381959  32.185618313644 16.717241690938  29.4797774172287 16.035833539898  L 29.1966080210921 15.9718434343434  L 29.140673325559 15.5965501125777  C 28.4152702428637 11.2590586333684  25.2864232114791 8.52823764227139  22.564850681945 8.52823764227139  C 20.8011598134158 8.52823764227139  19.3608414034377 8.96752106959163  18.198057279918 9.77041950471157  C 17.1422769020714 7.79925846575518  15.0659618359994 6.45847717633409  12.6764249192399 6.45847717633409  C 9.22155155099676 6.45847717633409  6.42034912216377 9.25967960516723  6.42034912216377 12.7145529734104  C 6.42034912216377 14.3119160799732  7.02008671323506 15.7695934691219  8.00646132152724 16.875914776714  C 7.968301096593 16.8932054990346  7.93032045941163 16.9106510234269  7.89248085990971 16.9282360930367  C 7.60057166759634 17.0631341533949  7.32614206763674 17.2084089876268  7.0527553161628 17.3750974837287  C 6.62024597408595 17.2674023532838  6.14528470015512 17.3825786887609  5.80774651402544 17.7214670276351  L 3.71155043869226 19.8176631029684  L 3.60203488863408 19.9408680967839  C 3.18964039544608 20.4662005009694  3.23755344859637 21.2174087271501  3.71326161916181 21.6879833563066  Z M 21.6395882193181 3.75138967333225  C 21.1245228979506 3.23974671290395  20.2911780092263 3.23974671290395  19.7778238683284 3.75481203427157  L 17.6833389734647 5.84929692913519  L 17.5738234234066 5.9725019229507  C 17.168273652097 6.49612314666661  17.2161867052475 7.23877547049897  17.6833389734647 7.70763891918575  C 18.1966931143627 8.22270424055337  19.0300380030869 8.22441542102303  19.5468145049242 7.71106128012508  L 21.6430105802576 5.6148652047918  L 21.7525261303158 5.49166021097629  C 22.1563647211553 4.96461662632106  22.108451668005 4.22025312201903  21.6395882193181 3.75138967333225  Z M 1.31589778116836 14.0480620155039  L 4.27966235461918 14.0480620155039  L 4.43366859688854 14.0236060327002  C 5.09589543864695 13.9448917310958  5.59384895531798 13.3836245370474  5.59556013578776 12.7179753343497  C 5.59556013578776 11.9907236347443  5.00691405422458 11.4003663727117  4.27966235461918 11.3069767441861  L 1.31589778116836 11.3069767441861  L 1.161891538899 11.4072110945903  C 0.499664697140588 11.4859253961947  0 12.0471925902431  0 12.7145529734104  C 0 13.4418046730159  0.588646081562956 14.0321619350485  1.31589778116836 14.0480620155039  Z M 3.71155043869226 3.75138967333225  C 3.19819629779408 4.26645499469985  3.19648511732453 5.1032222443635  3.71155043869226 5.61828756573111  L 5.80774651402544 7.71106128012508  L 5.93266268831053 7.81886564971366  C 6.45628391202649 8.22441542102303  7.19893623585881 8.17650236787256  7.6677996845458 7.70935009965542  C 8.1828650059133 7.19599595875747  8.18457618638308 6.36265107003314  7.67122204548514 5.84587456819587  L 5.57331478968194 3.75138967333225  L 5.45010979586641 3.64187412327402  C 4.92648857215067 3.23461317149497  4.18041388737879 3.28252622464544  3.71155043869226 3.75138967333225  Z M 13.8767441860464 4.31779040878964  L 13.8767441860464 1.35573701580848  L 13.9854779785298 1.20173077353909  C 13.9050524964557 0.537792751311088  13.3437853024075 0.038128054170409  12.6764249192399 0.038128054170409  C 11.9491732196345 0.038128054170409  11.3588159576018 0.628485316203058  11.3069767441859 1.35573701580848  L 11.3069767441859 4.31950158925931  L 11.3673718599503 4.47350783152869  C 11.4460861615546 5.13573467328704  12.0073533556031 5.63368818995806  12.6747137387704 5.63368818995806  C 13.4019654383758 5.63368818995806  13.9923227004085 5.04504210839507  13.8767441860464 4.31779040878964  Z M 12.6764249192399 9.09369509961021  C 14.4155753140419 9.09369509961021  15.8668832084852 10.3189095121302  16.2171394381505 11.9533006188512  C 16.192468296751 11.9956601259511  16.1682961290123 12.0380732895739  16.1445964102825 12.0805532317035  C 16.0362229376869 12.2742530106794  15.9365892612686 12.4714117142798  15.8439474217919 12.6754882671294  C 14.7811882066624 12.2517700006197  13.6852177660599 12.1064951663878  12.5874993662223 12.3987742971639  C 12.3550207879125 12.4610349404061  12.1260381280738 12.5440491313958  11.9040473051766 12.6460874078205  C 10.9187804200171 13.0905487128531  10.1329398489117 13.7291689448511  9.55262240880666 14.5423431353759  C 9.23739759483556 14.0059047141058  9.05556704543983 13.3824403710025  9.05556704543983 12.7162641538801  C 9.05556704543983 10.7158941848477  10.6760549502076 9.09369509961021  12.6764249192399 9.09369509961021  Z M 26.6008885565077 17.2205152238128  C 26.6218640673326 17.9399715457231  27.2179181666074 18.5124235710892  27.9468171677736 18.5124235710892  C 29.9115233483749 18.5124235710892  31.3098907367032 20.0827753506435  31.3098907367032 21.8399090599244  C 31.3098907367032 23.0695567639586  30.1177825381535 24.2888276941191  28.7823416822998 24.4790685484704  L 28.5813263702278 24  L 13.7201769507681 24  L 11.2258391218375 24.4998220962178  L 9.78202479338847 24.4998220962178  C 8.13719515286721 24.3701124227965  7.09191553009168 23.3774010555452  7.09191553009168 21.8399090599244  C 7.09191553009168 20.5064936171531  7.99735841403435 19.5622071946459  10.1718197028849 18.9119293652269  C 10.3780788926636 18.8496687219847  10.5598666531462 18.7407125963108  10.7101911473915 18.5988966867034  C 10.9269380925823 18.3948201338539  11.0737666683567 18.1232945508252  11.1157176900067 17.8189091838632  C 11.2118554479541 17.1236653343248  11.4128707600264 16.5615900828324  11.7292513816358 16.1084709570139  C 12.0456320032449 15.6553518311954  12.4756299751559 15.3146477556754  13.0314810120162 15.0638757203941  C 13.1241228514932 15.0223686248993  13.2062769355575 14.9912383032782  13.2919269380925 14.9687552932185  C 13.7743636870659 14.8390456197972  14.3616779901638 14.9376249715974  14.9822035187344 15.2056916300014  C 15.0189106626781 15.221256790812  15.0573657658572 15.2368219516226  15.0940729098006 15.2541165747454  C 15.342283121229 15.3699905496685  15.9470770166811 15.7314481729359  16.0414668153933 15.7660374191816  C 16.8175607159155 16.0513987007085  17.3541842011864 15.7072357005639  17.6828005374437 15.2247157154366  C 17.7404831922122 15.1399720621346  17.7841821730974 15.0604167957696  17.824385235512 14.9739436801553  L 17.8838158495159 14.8355866951726  C 17.9257668711657 14.7335484187478  18.0708474877047 14.3288542376733  18.0883270800589 14.2804292929293  L 18.2071883080669 13.9795028505918  C 18.3540168838413 13.6145863026998  18.5410485220302 13.2669643779306  18.7647873041626 12.9418254632212  C 18.7945026111645 12.8985889054141  18.825965877402 12.8570818099192  18.8574291436394 12.8155747144244  C 19.1458424174821 12.429904618785  19.4849465091518 12.1064951663878  19.8887250925316 11.852264206482  C 20.5704291943416 11.4233575530355  21.4391649343406 11.1898801408771  22.564850681945 11.1898801408771  C 22.961637428383 11.1898801408771  23.9212670486233 11.6239751812605  24.6973609491456 12.369373437855  C 24.9176038128073 12.5803678399537  25.1203670841151 12.8103863274876  25.3056507630686 13.0576994381442  C 26.0799967043554 14.0953768255149  26.5484497794455 15.4685699014687  26.6008885565077 17.2205152238128  Z " fill-rule="nonzero" fill="#333333" stroke="none" transform="matrix(1 0 0 1 5497 37 )" />
  </g>
</svg>